<svg width="186" height="177" viewBox="0 0 186 177" fill="none" xmlns="http://www.w3.org/2000/svg">
<path d="M92.2609 0.537115C92.4936 -0.179041 93.5063 -0.179037 93.7391 0.537119L115.161 66.4758C115.265 66.7961 115.563 67.013 115.9 67.013H185.221C185.974 67.013 186.287 67.9765 185.678 68.4192L129.596 109.171C129.323 109.369 129.21 109.72 129.313 110.041L150.735 175.979C150.968 176.695 150.148 177.291 149.539 176.848L93.457 136.096C93.1846 135.898 92.8154 135.898 92.543 136.096L36.4609 176.848C35.8518 177.291 35.0323 176.695 35.2649 175.979L56.6866 110.041C56.7904 109.72 56.6765 109.369 56.4041 109.171L0.321863 68.4192C-0.287242 67.9765 0.0258007 67.013 0.778697 67.013H70.1C70.4369 67.013 70.7354 66.7961 70.8391 66.4758L92.2609 0.537115Z" fill="#FFD204"/>
</svg>
