<svg width="135" height="39" viewBox="0 0 135 39" fill="none" xmlns="http://www.w3.org/2000/svg">
<g clip-path="url(#clip0_1_6442)">
<path d="M1.61599 34C1.29599 34 1.02399 33.904 0.799994 33.712C0.607994 33.52 0.511993 33.264 0.511993 32.944V1.50399C0.511993 1.15199 0.607994 0.879994 0.799994 0.687994C1.02399 0.495994 1.29599 0.399994 1.61599 0.399994H2.81599C3.13599 0.399994 3.37599 0.479994 3.53599 0.639994C3.69599 0.799994 3.79199 0.927994 3.82399 1.02399L14.72 22.24L25.664 1.02399C25.728 0.927994 25.824 0.799994 25.952 0.639994C26.112 0.479994 26.352 0.399994 26.672 0.399994H27.824C28.176 0.399994 28.448 0.495994 28.64 0.687994C28.832 0.879994 28.928 1.15199 28.928 1.50399V32.944C28.928 33.264 28.832 33.52 28.64 33.712C28.448 33.904 28.176 34 27.824 34H26.96C26.64 34 26.384 33.904 26.192 33.712C26 33.52 25.904 33.264 25.904 32.944V6.92799L16.736 24.976C16.608 25.296 16.416 25.536 16.16 25.696C15.936 25.856 15.632 25.936 15.248 25.936H14.192C13.808 25.936 13.504 25.856 13.28 25.696C13.056 25.536 12.864 25.296 12.704 24.976L3.53599 6.92799V32.944C3.53599 33.264 3.43999 33.52 3.24799 33.712C3.05599 33.904 2.79999 34 2.47999 34H1.61599ZM39.0211 34C38.7011 34 38.4451 33.904 38.2531 33.712C38.0611 33.52 37.9651 33.264 37.9651 32.944V1.50399C37.9651 1.15199 38.0611 0.879994 38.2531 0.687994C38.4451 0.495994 38.7011 0.399994 39.0211 0.399994H50.6851C52.9251 0.399994 54.8611 0.783994 56.4931 1.55199C58.1571 2.28799 59.4371 3.39199 60.3331 4.86399C61.2611 6.33599 61.7251 8.15999 61.7251 10.336C61.7251 12.512 61.2611 14.336 60.3331 15.808C59.4371 17.28 58.1571 18.4 56.4931 19.168C54.8611 19.904 52.9251 20.272 50.6851 20.272H40.9891V32.944C40.9891 33.264 40.8931 33.52 40.7011 33.712C40.5091 33.904 40.2371 34 39.8851 34H39.0211ZM40.9891 17.392H50.4451C53.2291 17.392 55.2931 16.784 56.6371 15.568C58.0131 14.352 58.7011 12.608 58.7011 10.336C58.7011 8.06399 58.0131 6.31999 56.6371 5.10399C55.2931 3.88799 53.2291 3.27999 50.4451 3.27999H40.9891V17.392Z" fill="black"/>
<path d="M66.226 34V18.586H68.284V34H66.226ZM75.697 34L70.615 27.175H73.03L78.196 34H75.697ZM67.507 28.456V26.629H71.623C72.267 26.629 72.82 26.496 73.282 26.23C73.744 25.964 74.101 25.6 74.353 25.138C74.605 24.662 74.731 24.123 74.731 23.521C74.731 22.919 74.605 22.387 74.353 21.925C74.101 21.449 73.744 21.078 73.282 20.812C72.82 20.532 72.267 20.392 71.623 20.392H67.507V18.586H71.245C72.365 18.586 73.345 18.754 74.185 19.09C75.025 19.426 75.676 19.944 76.138 20.644C76.6 21.344 76.831 22.247 76.831 23.353V23.689C76.831 24.795 76.593 25.698 76.117 26.398C75.655 27.098 75.004 27.616 74.164 27.952C73.338 28.288 72.365 28.456 71.245 28.456H67.507ZM87.4191 34V30.64H87.0831V26.755C87.0831 25.985 86.8801 25.404 86.4741 25.012C86.0821 24.62 85.5011 24.424 84.7311 24.424C84.2971 24.424 83.8491 24.431 83.3871 24.445C82.9251 24.459 82.4841 24.473 82.0641 24.487C81.6441 24.501 81.2801 24.522 80.9721 24.55V22.786C81.2801 22.758 81.6021 22.737 81.9381 22.723C82.2881 22.695 82.6451 22.681 83.0091 22.681C83.3731 22.667 83.7231 22.66 84.0591 22.66C85.2071 22.66 86.1451 22.8 86.8731 23.08C87.6011 23.346 88.1401 23.787 88.4901 24.403C88.8401 25.019 89.0151 25.852 89.0151 26.902V34H87.4191ZM83.7441 34.294C82.9041 34.294 82.1761 34.154 81.5601 33.874C80.9581 33.58 80.4891 33.16 80.1531 32.614C79.8311 32.068 79.6701 31.41 79.6701 30.64C79.6701 29.842 79.8451 29.177 80.1951 28.645C80.5591 28.113 81.0841 27.714 81.7701 27.448C82.4561 27.168 83.2821 27.028 84.2481 27.028H87.2931V28.54H84.1641C83.3521 28.54 82.7291 28.736 82.2951 29.128C81.8611 29.52 81.6441 30.024 81.6441 30.64C81.6441 31.256 81.8611 31.753 82.2951 32.131C82.7291 32.509 83.3521 32.698 84.1641 32.698C84.6401 32.698 85.0951 32.614 85.5291 32.446C85.9631 32.264 86.3201 31.97 86.6001 31.564C86.8941 31.144 87.0551 30.57 87.0831 29.842L87.6291 30.64C87.5591 31.438 87.3631 32.11 87.0411 32.656C86.7331 33.188 86.2991 33.594 85.7391 33.874C85.1931 34.154 84.5281 34.294 83.7441 34.294ZM97.083 34.126C96.243 34.126 95.5152 34.007 94.8992 33.769C94.2972 33.531 93.8282 33.125 93.4922 32.551C93.1702 31.963 93.0092 31.172 93.0092 30.178V19.384H94.9412V30.43C94.9412 31.032 95.1022 31.501 95.4242 31.837C95.7602 32.159 96.229 32.32 96.831 32.32H98.805V34.126H97.083ZM91.0772 24.298V22.786H98.805V24.298H91.0772ZM102.203 34V22.786H104.219V34H102.203ZM100.481 24.382V22.786H104.219V24.382H100.481ZM102.77 20.98C102.322 20.98 101.986 20.861 101.762 20.623C101.552 20.385 101.447 20.084 101.447 19.72C101.447 19.356 101.552 19.055 101.762 18.817C101.986 18.579 102.322 18.46 102.77 18.46C103.218 18.46 103.547 18.579 103.757 18.817C103.981 19.055 104.093 19.356 104.093 19.72C104.093 20.084 103.981 20.385 103.757 20.623C103.547 20.861 103.218 20.98 102.77 20.98ZM108.117 34V22.786H109.713V27.595H109.461C109.461 26.489 109.608 25.558 109.902 24.802C110.21 24.032 110.672 23.451 111.288 23.059C111.904 22.653 112.681 22.45 113.619 22.45H113.703C115.117 22.45 116.16 22.891 116.832 23.773C117.518 24.655 117.861 25.929 117.861 27.595V34H115.845V27.175C115.845 26.307 115.6 25.614 115.11 25.096C114.62 24.564 113.948 24.298 113.094 24.298C112.212 24.298 111.498 24.571 110.952 25.117C110.406 25.663 110.133 26.391 110.133 27.301V34H108.117ZM125.791 38.368C125.273 38.368 124.748 38.347 124.216 38.305C123.698 38.263 123.201 38.207 122.725 38.137V36.436C123.229 36.506 123.754 36.562 124.3 36.604C124.86 36.66 125.385 36.688 125.875 36.688C126.897 36.688 127.709 36.548 128.311 36.268C128.927 36.002 129.368 35.575 129.634 34.987C129.914 34.413 130.054 33.671 130.054 32.761V30.619L130.726 29.023C130.684 30.157 130.446 31.102 130.012 31.858C129.578 32.6 129.011 33.16 128.311 33.538C127.625 33.902 126.862 34.084 126.022 34.084C125.238 34.084 124.517 33.937 123.859 33.643C123.215 33.335 122.655 32.915 122.179 32.383C121.717 31.851 121.353 31.242 121.087 30.556C120.835 29.856 120.709 29.121 120.709 28.351V27.973C120.709 27.189 120.842 26.461 121.108 25.789C121.374 25.103 121.745 24.508 122.221 24.004C122.697 23.5 123.264 23.108 123.922 22.828C124.594 22.548 125.329 22.408 126.127 22.408C127.065 22.408 127.891 22.611 128.605 23.017C129.319 23.409 129.879 23.99 130.285 24.76C130.705 25.516 130.936 26.447 130.978 27.553L130.39 27.574V22.786H131.986V32.677C131.986 34.021 131.776 35.106 131.356 35.932C130.95 36.772 130.292 37.388 129.382 37.78C128.486 38.172 127.289 38.368 125.791 38.368ZM126.4 32.236C127.072 32.236 127.681 32.089 128.227 31.795C128.787 31.501 129.228 31.081 129.55 30.535C129.886 29.975 130.054 29.31 130.054 28.54V27.574C130.054 26.818 129.879 26.181 129.529 25.663C129.193 25.145 128.752 24.753 128.206 24.487C127.66 24.221 127.065 24.088 126.421 24.088C125.693 24.088 125.049 24.256 124.489 24.592C123.929 24.928 123.495 25.404 123.187 26.02C122.879 26.622 122.725 27.336 122.725 28.162C122.725 28.988 122.879 29.709 123.187 30.325C123.509 30.941 123.943 31.417 124.489 31.753C125.049 32.075 125.686 32.236 126.4 32.236Z" fill="black"/>
<path d="M72.5 1L73.9593 5.4914H78.6819L74.8613 8.2672L76.3206 12.7586L72.5 9.9828L68.6794 12.7586L70.1387 8.2672L66.3181 5.4914H71.0407L72.5 1Z" fill="#FFD204"/>
<path d="M86.5 1L87.9593 5.4914H92.6819L88.8613 8.2672L90.3206 12.7586L86.5 9.9828L82.6794 12.7586L84.1387 8.2672L80.3181 5.4914H85.0407L86.5 1Z" fill="#FFD204"/>
<path d="M100.5 1L101.959 5.4914H106.682L102.861 8.2672L104.321 12.7586L100.5 9.9828L96.679 12.7586L98.139 8.2672L94.3181 5.4914H99.041L100.5 1Z" fill="#FFD204"/>
<path d="M114.5 1L115.959 5.4914H120.682L116.861 8.2672L118.321 12.7586L114.5 9.9828L110.679 12.7586L112.139 8.2672L108.318 5.4914H113.041L114.5 1Z" fill="#FFD204"/>
<path d="M128.5 1L129.959 5.4914H134.682L130.861 8.2672L132.321 12.7586L128.5 9.9828L124.679 12.7586L126.139 8.2672L122.318 5.4914H127.041L128.5 1Z" fill="#FFD204"/>
</g>
<defs>
<clipPath id="clip0_1_6442">
<rect width="135" height="39" fill="white"/>
</clipPath>
</defs>
</svg>
