<svg width="137" height="44" viewBox="0 0 137 44" fill="none" xmlns="http://www.w3.org/2000/svg">
<path d="M3.104 38.6C2.784 38.6 2.512 38.504 2.288 38.312C2.096 38.12 2 37.864 2 37.544V6.104C2 5.752 2.096 5.48 2.288 5.288C2.512 5.096 2.784 5 3.104 5H4.304C4.624 5 4.864 5.08 5.024 5.24C5.184 5.4 5.28 5.528 5.312 5.624L16.208 26.84L27.152 5.624C27.216 5.528 27.312 5.4 27.44 5.24C27.6 5.08 27.84 5 28.16 5H29.312C29.664 5 29.936 5.096 30.128 5.288C30.32 5.48 30.416 5.752 30.416 6.104V37.544C30.416 37.864 30.32 38.12 30.128 38.312C29.936 38.504 29.664 38.6 29.312 38.6H28.448C28.128 38.6 27.872 38.504 27.68 38.312C27.488 38.12 27.392 37.864 27.392 37.544V11.528L18.224 29.576C18.096 29.896 17.904 30.136 17.648 30.296C17.424 30.456 17.12 30.536 16.736 30.536H15.68C15.296 30.536 14.992 30.456 14.768 30.296C14.544 30.136 14.352 29.896 14.192 29.576L5.024 11.528V37.544C5.024 37.864 4.928 38.12 4.736 38.312C4.544 38.504 4.288 38.6 3.968 38.6H3.104ZM40.5091 38.6C40.1891 38.6 39.9331 38.504 39.7411 38.312C39.5491 38.12 39.4531 37.864 39.4531 37.544V6.104C39.4531 5.752 39.5491 5.48 39.7411 5.288C39.9331 5.096 40.1891 5 40.5091 5H52.1731C54.4131 5 56.3491 5.384 57.9811 6.152C59.6451 6.888 60.9251 7.992 61.8211 9.464C62.7491 10.936 63.2131 12.76 63.2131 14.936C63.2131 17.112 62.7491 18.936 61.8211 20.408C60.9251 21.88 59.6451 23 57.9811 23.768C56.3491 24.504 54.4131 24.872 52.1731 24.872H42.4771V37.544C42.4771 37.864 42.3811 38.12 42.1891 38.312C41.9971 38.504 41.7251 38.6 41.3731 38.6H40.5091ZM42.4771 21.992H51.9331C54.7171 21.992 56.7811 21.384 58.1251 20.168C59.5011 18.952 60.1891 17.208 60.1891 14.936C60.1891 12.664 59.5011 10.92 58.1251 9.704C56.7811 8.488 54.7171 7.88 51.9331 7.88H42.4771V21.992Z" fill="black"/>
<path d="M67.714 38.6V23.186H69.772V38.6H67.714ZM77.185 38.6L72.103 31.775H74.518L79.684 38.6H77.185ZM68.995 33.056V31.229H73.111C73.755 31.229 74.308 31.096 74.77 30.83C75.232 30.564 75.589 30.2 75.841 29.738C76.093 29.262 76.219 28.723 76.219 28.121C76.219 27.519 76.093 26.987 75.841 26.525C75.589 26.049 75.232 25.678 74.77 25.412C74.308 25.132 73.755 24.992 73.111 24.992H68.995V23.186H72.733C73.853 23.186 74.833 23.354 75.673 23.69C76.513 24.026 77.164 24.544 77.626 25.244C78.088 25.944 78.319 26.847 78.319 27.953V28.289C78.319 29.395 78.081 30.298 77.605 30.998C77.143 31.698 76.492 32.216 75.652 32.552C74.826 32.888 73.853 33.056 72.733 33.056H68.995ZM88.9071 38.6V35.24H88.5711V31.355C88.5711 30.585 88.3681 30.004 87.9621 29.612C87.5701 29.22 86.9891 29.024 86.2191 29.024C85.7851 29.024 85.3371 29.031 84.8751 29.045C84.4131 29.059 83.9721 29.073 83.5521 29.087C83.1321 29.101 82.7681 29.122 82.4601 29.15V27.386C82.7681 27.358 83.0901 27.337 83.4261 27.323C83.7761 27.295 84.1331 27.281 84.4971 27.281C84.8611 27.267 85.2111 27.26 85.5471 27.26C86.6951 27.26 87.6331 27.4 88.3611 27.68C89.0891 27.946 89.6281 28.387 89.9781 29.003C90.3281 29.619 90.5031 30.452 90.5031 31.502V38.6H88.9071ZM85.2321 38.894C84.3921 38.894 83.6641 38.754 83.0481 38.474C82.4461 38.18 81.9771 37.76 81.6411 37.214C81.3191 36.668 81.1581 36.01 81.1581 35.24C81.1581 34.442 81.3331 33.777 81.6831 33.245C82.0471 32.713 82.5721 32.314 83.2581 32.048C83.9441 31.768 84.7701 31.628 85.7361 31.628H88.7811V33.14H85.6521C84.8401 33.14 84.2171 33.336 83.7831 33.728C83.3491 34.12 83.1321 34.624 83.1321 35.24C83.1321 35.856 83.3491 36.353 83.7831 36.731C84.2171 37.109 84.8401 37.298 85.6521 37.298C86.1281 37.298 86.5831 37.214 87.0171 37.046C87.4511 36.864 87.8081 36.57 88.0881 36.164C88.3821 35.744 88.5431 35.17 88.5711 34.442L89.1171 35.24C89.0471 36.038 88.8511 36.71 88.5291 37.256C88.2211 37.788 87.7871 38.194 87.2271 38.474C86.6811 38.754 86.0161 38.894 85.2321 38.894ZM98.571 38.726C97.731 38.726 97.0032 38.607 96.3872 38.369C95.7852 38.131 95.3162 37.725 94.9802 37.151C94.6582 36.563 94.4972 35.772 94.4972 34.778V23.984H96.4292V35.03C96.4292 35.632 96.5902 36.101 96.9122 36.437C97.2482 36.759 97.717 36.92 98.319 36.92H100.293V38.726H98.571ZM92.5652 28.898V27.386H100.293V28.898H92.5652ZM103.691 38.6V27.386H105.707V38.6H103.691ZM101.969 28.982V27.386H105.707V28.982H101.969ZM104.258 25.58C103.81 25.58 103.474 25.461 103.25 25.223C103.04 24.985 102.935 24.684 102.935 24.32C102.935 23.956 103.04 23.655 103.25 23.417C103.474 23.179 103.81 23.06 104.258 23.06C104.706 23.06 105.035 23.179 105.245 23.417C105.469 23.655 105.581 23.956 105.581 24.32C105.581 24.684 105.469 24.985 105.245 25.223C105.035 25.461 104.706 25.58 104.258 25.58ZM109.605 38.6V27.386H111.201V32.195H110.949C110.949 31.089 111.096 30.158 111.39 29.402C111.698 28.632 112.16 28.051 112.776 27.659C113.392 27.253 114.169 27.05 115.107 27.05H115.191C116.605 27.05 117.648 27.491 118.32 28.373C119.006 29.255 119.349 30.529 119.349 32.195V38.6H117.333V31.775C117.333 30.907 117.088 30.214 116.598 29.696C116.108 29.164 115.436 28.898 114.582 28.898C113.7 28.898 112.986 29.171 112.44 29.717C111.894 30.263 111.621 30.991 111.621 31.901V38.6H109.605ZM127.279 42.968C126.761 42.968 126.236 42.947 125.704 42.905C125.186 42.863 124.689 42.807 124.213 42.737V41.036C124.717 41.106 125.242 41.162 125.788 41.204C126.348 41.26 126.873 41.288 127.363 41.288C128.385 41.288 129.197 41.148 129.799 40.868C130.415 40.602 130.856 40.175 131.122 39.587C131.402 39.013 131.542 38.271 131.542 37.361V35.219L132.214 33.623C132.172 34.757 131.934 35.702 131.5 36.458C131.066 37.2 130.499 37.76 129.799 38.138C129.113 38.502 128.35 38.684 127.51 38.684C126.726 38.684 126.005 38.537 125.347 38.243C124.703 37.935 124.143 37.515 123.667 36.983C123.205 36.451 122.841 35.842 122.575 35.156C122.323 34.456 122.197 33.721 122.197 32.951V32.573C122.197 31.789 122.33 31.061 122.596 30.389C122.862 29.703 123.233 29.108 123.709 28.604C124.185 28.1 124.752 27.708 125.41 27.428C126.082 27.148 126.817 27.008 127.615 27.008C128.553 27.008 129.379 27.211 130.093 27.617C130.807 28.009 131.367 28.59 131.773 29.36C132.193 30.116 132.424 31.047 132.466 32.153L131.878 32.174V27.386H133.474V37.277C133.474 38.621 133.264 39.706 132.844 40.532C132.438 41.372 131.78 41.988 130.87 42.38C129.974 42.772 128.777 42.968 127.279 42.968ZM127.888 36.836C128.56 36.836 129.169 36.689 129.715 36.395C130.275 36.101 130.716 35.681 131.038 35.135C131.374 34.575 131.542 33.91 131.542 33.14V32.174C131.542 31.418 131.367 30.781 131.017 30.263C130.681 29.745 130.24 29.353 129.694 29.087C129.148 28.821 128.553 28.688 127.909 28.688C127.181 28.688 126.537 28.856 125.977 29.192C125.417 29.528 124.983 30.004 124.675 30.62C124.367 31.222 124.213 31.936 124.213 32.762C124.213 33.588 124.367 34.309 124.675 34.925C124.997 35.541 125.431 36.017 125.977 36.353C126.537 36.675 127.174 36.836 127.888 36.836Z" fill="black"/>
<path d="M73.988 5.60001L75.4473 10.0914H80.1699L76.3493 12.8672L77.8086 17.3586L73.988 14.5828L70.1674 17.3586L71.6267 12.8672L67.8061 10.0914H72.5287L73.988 5.60001Z" fill="#FFD204"/>
<path d="M87.988 5.60001L89.4473 10.0914H94.1699L90.3493 12.8672L91.8086 17.3586L87.988 14.5828L84.1674 17.3586L85.6267 12.8672L81.8061 10.0914H86.5287L87.988 5.60001Z" fill="#FFD204"/>
<path d="M101.988 5.60001L103.447 10.0914H108.17L104.349 12.8672L105.809 17.3586L101.988 14.5828L98.167 17.3586L99.627 12.8672L95.8061 10.0914H100.529L101.988 5.60001Z" fill="#FFD204"/>
<path d="M115.988 5.60001L117.447 10.0914H122.17L118.349 12.8672L119.809 17.3586L115.988 14.5828L112.167 17.3586L113.627 12.8672L109.806 10.0914H114.529L115.988 5.60001Z" fill="#FFD204"/>
<path d="M129.988 5.60001L131.447 10.0914H136.17L132.349 12.8672L133.809 17.3586L129.988 14.5828L126.167 17.3586L127.627 12.8672L123.806 10.0914H128.529L129.988 5.60001Z" fill="#FFD204"/>
</svg>
